<?xml version="1.0" encoding="UTF-8" standalone="no"?>
<svg xmlns:dc="http://purl.org/dc/elements/1.1/" xmlns:cc="http://creativecommons.org/ns#" xmlns:rdf="http://www.w3.org/1999/02/22-rdf-syntax-ns#" xmlns:svg="http://www.w3.org/2000/svg" xmlns="http://www.w3.org/2000/svg" xmlns:sodipodi="http://sodipodi.sourceforge.net/DTD/sodipodi-0.dtd" xmlns:inkscape="http://www.inkscape.org/namespaces/inkscape" width="100mm" height="100mm" viewBox="0 0 100 100" version="1.1" id="svg8" inkscape:version="1.0.1 (3bc2e813f5, 2020-09-07)" sodipodi:docname="cattoVector.svg">
   <defs id="defs2" />
   <sodipodi:namedview id="base" pagecolor="#ffffff" bordercolor="#666666" borderopacity="1.0" inkscape:pageopacity="0.0" inkscape:pageshadow="2" inkscape:zoom="1.4" inkscape:cx="262.27238" inkscape:cy="204.96824" inkscape:document-units="mm" inkscape:current-layer="layer1" inkscape:document-rotation="0" showgrid="false" inkscape:window-width="1920" inkscape:window-height="1009" inkscape:window-x="-8" inkscape:window-y="-8" inkscape:window-maximized="1" />
   <metadata id="metadata5">
      <rdf:RDF>
         <cc:Work rdf:about="">
            <dc:format>image/svg+xml</dc:format>
            <dc:type rdf:resource="http://purl.org/dc/dcmitype/StillImage" />
            <dc:title></dc:title>
         </cc:Work>
      </rdf:RDF>
   </metadata>
   <g inkscape:label="Capa 1" inkscape:groupmode="layer" id="layer1">
      <path id="path878" style="fill:#000000;stroke-width:7.97231;stroke-linecap:round;stroke-linejoin:round" d="M 194.31641 42.142578 A 147.11223 147.0457 0 0 0 47.205078 189.18945 A 147.11223 147.0457 0 0 0 194.31641 336.23438 A 147.11223 147.0457 0 0 0 198.87305 336.16406 L 198.29688 336.06445 C 225.90282 333.81606 255.86011 320.63516 276.78516 301.07227 C 293.70708 285.2519 306.38927 262.62625 309.28516 239.64258 C 312.08618 217.41176 303.99582 194.11958 293.57227 174.28516 C 285.17213 158.30099 258.44533 134.69908 257.375 133.98242 C 256.30467 133.26577 255.29392 133.75244 255.41797 135.61133 C 255.41797 135.61133 255.70989 142.87452 254.96484 146.39453 C 254.16302 150.18269 251.06596 152.53763 249.32031 152.76953 C 248.79974 152.8387 248.05563 152.87522 247.94141 152.49023 C 247.66822 151.56944 248.81621 150.06679 248.58594 146.36133 C 248.40898 143.5137 245.52127 138.90939 244.13477 137.16406 C 241.2591 133.54417 240.32505 132.51639 239.375 131.85352 C 238.68075 131.36912 237.16885 130.9228 236.44531 132.89844 C 235.01634 136.80026 230.29974 151.51323 222.04492 154.2207 C 209.83535 158.22528 203.45469 163.95437 197.57227 172.18945 C 194.37889 176.66001 193.19278 182.45261 192.65234 187.91992 C 192.17113 192.78811 193.44577 196.15863 194.20508 202.51367 C 194.63656 206.12494 188.82138 217.70284 186.94922 218.55859 C 188.77622 221.63684 195.06363 232.86699 200.95508 235.63477 C 210.56882 240.15126 222.44108 237.59025 232.81836 235.32422 C 239.20445 233.92972 247.83803 228.9592 250.72266 227.32422 C 253.60728 225.68924 253.53667 227.84929 252.68359 228.71484 C 251.83052 229.5804 245.66109 236.54422 241.08594 238.89648 C 229.08652 245.06584 215.12409 247.10979 201.66797 248.09961 C 187.29847 249.15661 172.99521 244.24542 158.58984 244.53711 C 148.02189 244.75111 137.12772 245.02837 127.11914 248.42773 C 116.28677 252.1069 97.539063 265.83203 97.539062 265.83203 C 75.79123 243.24725 70.683014 213.9284 69.824219 185.66797 C 69.18247 164.54997 76.582382 143.07701 86.859375 124.61719 C 94.348819 111.16445 105.93354 100.01579 118.13672 90.626953 C 131.39631 80.425343 146.3277 71.346357 162.54688 67.244141 C 182.12239 62.293024 203.42841 62.116936 223.11914 66.587891 C 240.85547 70.615079 257.77881 79.437229 272.07422 90.681641 C 284.17113 100.19677 299.23257 122.87949 301.64844 126.14062 C 304.06431 129.40176 311.13633 134.10605 316.95117 135.49609 C 320.7909 136.41399 327.72034 135.24466 330.91992 134.60938 A 147.11223 147.0457 0 0 0 194.31641 42.142578 z " transform="scale(0.26458333)" />
   </g>
   <g inkscape:groupmode="layer" id="layer2" inkscape:label="guía" sodipodi:insensitive="true" style="display:none">
      <path style="fill:#000000;fill-opacity:0.413333;stroke-width:0.048828" d="M 0,50 V 0 h 50 50 v 50 50 H 50 0 Z m 52.465821,38.916782 c 1.654409,-0.07145 3.188129,-0.269736 4.916737,-0.635654 2.52438,-0.53437 5.903253,-1.779239 8.162584,-3.00732 2.688125,-1.461162 4.743271,-2.921816 7.044711,-5.006888 1.099546,-0.996177 2.535401,-2.615201 3.695065,-4.166441 3.310936,-4.428922 5.125091,-8.764326 5.680927,-13.576065 0.118516,-1.025981 0.119199,-3.463984 0.0013,-4.506827 -0.357992,-3.165386 -1.214129,-5.994252 -2.744203,-9.067391 -1.456006,-2.924375 -3.310435,-5.628551 -5.776098,-8.422851 -1.224654,-1.387883 -3.434034,-3.527265 -4.818902,-4.666233 -0.618089,-0.50834 -0.932347,-0.660093 -1.032241,-0.498463 -0.02037,0.03296 -0.03164,0.708614 -0.02505,1.501466 0.01626,1.955856 -0.0277,2.10795 -0.863393,2.986849 -0.474161,0.498678 -0.654342,0.605701 -0.961059,0.570853 -0.193565,-0.02199 -0.208096,-0.147732 -0.06552,-0.567121 0.204306,-0.600982 0.117051,-1.381145 -0.243086,-2.173471 -0.290948,-0.6401 -1.008028,-1.690707 -1.566479,-2.29509 -0.580909,-0.628677 -0.938482,-0.806927 -1.149962,-0.573248 -0.04783,0.05285 -0.245029,0.54174 -0.438232,1.086426 -0.510723,1.43986 -0.855845,2.155621 -1.426026,2.957508 -0.324349,0.456153 -1.091473,1.240239 -1.543348,1.577469 -0.413096,0.308294 -1.108976,0.67897 -1.274757,0.679027 -0.148501,5e-5 -1.375897,0.606808 -1.666709,0.823924 -0.134276,0.10025 -0.397948,0.265813 -0.585937,0.367915 -0.187989,0.102105 -0.48462,0.289725 -0.659179,0.416933 -0.174561,0.127211 -0.441838,0.312538 -0.593951,0.411838 -0.39709,0.259226 -1.879877,1.863698 -2.385815,2.581602 -0.127827,0.181384 -0.345591,0.605049 -0.483917,0.941479 -0.673062,1.636971 -0.836143,3.227665 -0.515449,5.027561 0.261402,1.467101 0.278393,1.604493 0.250611,2.026368 -0.06791,1.031093 -0.465465,1.868873 -1.451123,3.058018 -0.219747,0.265112 -0.452485,0.561352 -0.517197,0.658306 l -0.117656,0.176289 0.103642,0.262939 c 0.477724,1.212003 1.528848,2.716421 2.463783,3.526294 0.967476,0.838062 2.154908,1.423306 3.291725,1.622383 0.541932,0.0949 2.365257,0.186449 3.055933,0.153432 0.945306,-0.04518 2.769491,-0.548823 4.589843,-1.267212 0.956357,-0.377416 2.441625,-1.107197 3.235435,-1.589716 0.275586,-0.167515 0.563125,-0.316988 0.63898,-0.332159 0.154038,-0.03081 0.300389,0.07671 0.300389,0.220685 0,0.169341 -0.325669,0.577895 -0.999393,1.253735 -0.815114,0.817675 -1.217985,1.146177 -1.808224,1.474423 -0.2417,0.134415 -0.592915,0.334723 -0.780474,0.445127 -0.187563,0.110405 -0.385317,0.200953 -0.439453,0.201217 -0.122114,5.54e-4 -0.523642,0.185848 -0.776631,0.358324 -0.113627,0.07746 -0.25662,0.129479 -0.355951,0.129479 -0.09131,0 -0.252169,0.04394 -0.357451,0.09766 -0.105284,0.05371 -0.237119,0.09766 -0.292969,0.09766 -0.05585,0 -0.187686,0.04394 -0.292969,0.09766 -0.105284,0.05371 -0.237119,0.09766 -0.292968,0.09766 -0.05585,0 -0.187687,0.04395 -0.292969,0.09766 -0.105284,0.05371 -0.235591,0.09766 -0.289575,0.09766 -0.05399,0 -0.214165,0.05205 -0.355953,0.115678 -0.337212,0.151318 -0.386381,0.161523 -1.213882,0.251885 -0.483765,0.05283 -0.77015,0.108578 -0.915258,0.178179 -0.142897,0.06853 -0.371861,0.11395 -0.708008,0.14044 -0.273252,0.02153 -0.567832,0.06107 -0.65463,0.08786 -0.269428,0.08317 -1.967265,0.162725 -3.626366,0.169922 l -1.586915,0.0069 -1.401841,-0.231831 c -3.222599,-0.532944 -5.944524,-0.762377 -8.363789,-0.70499 -0.938474,0.02227 -1.183234,0.04356 -1.489257,0.129615 -0.274474,0.07718 -0.610844,0.114814 -1.342773,0.150252 -1.16339,0.05632 -2.076109,0.166362 -2.451674,0.295573 -0.150467,0.05177 -0.357213,0.09413 -0.459436,0.09413 -0.102224,0 -0.297351,0.04395 -0.433617,0.09766 -0.136266,0.05371 -0.340326,0.09814 -0.453468,0.09873 -0.113142,5.53e-4 -0.301495,0.04453 -0.418564,0.09766 -0.117068,0.05312 -0.288776,0.09658 -0.381572,0.09658 -0.0928,0 -0.271672,0.04209 -0.3975,0.09352 -0.125828,0.05143 -0.311385,0.105021 -0.412349,0.119078 -0.100964,0.01406 -0.249908,0.07279 -0.330991,0.130522 -0.08108,0.05773 -0.229189,0.12645 -0.329125,0.1527 -0.176497,0.04636 -1.154583,0.479303 -1.548892,0.685601 -0.107422,0.0562 -0.349121,0.176944 -0.53711,0.268311 -0.187988,0.09137 -0.429687,0.212626 -0.537109,0.269463 -0.107423,0.05683 -0.3003,0.155834 -0.42862,0.22001 -0.411228,0.205663 -1.943125,1.398041 -2.611934,2.033046 -0.356385,0.338373 -0.692883,0.639257 -0.747769,0.668634 -0.150976,0.0808 -0.363137,-0.108195 -0.839234,-0.747603 -1.388952,-1.865387 -2.401663,-3.555416 -3.357038,-5.602272 -1.626633,-3.485005 -2.432161,-6.284799 -2.952142,-10.260844 -0.280031,-2.141255 -0.291472,-5.993006 -0.02319,-7.805562 0.134849,-0.911042 0.503314,-2.894517 0.711693,-3.831094 0.330443,-1.4852 1.36967,-4.417991 2.191909,-6.185768 0.826266,-1.776431 2.119973,-3.918835 3.401263,-5.632551 2.45271,-3.280487 5.908024,-6.409421 9.397338,-8.50969 1.141425,-0.68704 3.806861,-2.021103 4.461821,-2.233162 0.147706,-0.04782 0.455322,-0.168359 0.683594,-0.267858 0.228272,-0.0995 0.568849,-0.231688 0.756836,-0.293756 0.187989,-0.06207 0.451661,-0.163982 0.585938,-0.226471 0.134278,-0.06249 0.316426,-0.113833 0.404776,-0.114095 0.08835,-1.84e-4 0.247605,-0.04484 0.353899,-0.09907 0.257962,-0.131603 2.9106,-0.785463 3.831168,-0.944364 1.605773,-0.277171 3.31357,-0.372403 6.66504,-0.371663 3.535946,7.38e-4 4.194429,0.06403 6.665039,0.640169 3.866191,0.901583 7.414272,2.42154 10.657626,4.565603 3.259937,2.155021 6.105605,4.868423 8.358741,7.970221 0.221855,0.305426 0.761778,1.096441 1.199814,1.757812 0.813334,1.228004 1.170957,1.67755 1.73206,2.177248 0.882555,0.785974 2.086211,1.360819 3.289273,1.570894 0.354541,0.06191 0.661504,0.07248 1.495885,0.05153 0.577391,-0.0145 1.137695,-0.05215 1.245116,-0.08366 0.249164,-0.07309 0.504048,-0.264792 0.539415,-0.405718 0.05438,-0.216647 -1.389966,-3.257288 -2.317862,-4.879588 -2.130748,-3.725313 -4.783067,-6.945821 -8.23132,-9.994658 -3.338579,-2.951869 -7.182636,-5.255672 -11.668511,-6.993121 -2.12952,-0.824797 -4.310356,-1.42255 -6.983833,-1.914219 -2.383734,-0.438386 -3.248183,-0.489692 -7.080078,-0.420219 -2.999797,0.05439 -4.126376,0.110859 -4.433065,0.222211 -0.113083,0.04106 -0.480263,0.09456 -0.815959,0.118888 -0.335693,0.02433 -0.698241,0.07726 -0.805663,0.117617 -0.107421,0.04036 -0.360107,0.07531 -0.561524,0.07767 -0.204033,0.0024 -0.452705,0.03784 -0.561523,0.08005 -0.179574,0.06966 -0.505569,0.13942 -1.928711,0.412755 -0.340432,0.06539 -0.576164,0.140112 -0.701595,0.222403 -0.109189,0.07163 -0.307325,0.14067 -0.469542,0.1636 -0.154353,0.02182 -0.348408,0.07471 -0.431233,0.117541 -0.08282,0.04283 -0.218477,0.07788 -0.301447,0.07788 -0.08297,0 -0.236994,0.04394 -0.342276,0.09766 -0.105283,0.05371 -0.237118,0.09766 -0.292969,0.09766 -0.05585,0 -0.187686,0.04394 -0.292969,0.09766 -0.105282,0.05371 -0.23427,0.09766 -0.286639,0.09766 -0.05237,0 -0.23452,0.0659 -0.404778,0.146446 -0.170258,0.08055 -0.348887,0.146464 -0.396954,0.146484 -0.04807,2.3e-5 -0.168916,0.04096 -0.268555,0.09097 -0.09964,0.05001 -0.334968,0.140627 -0.522957,0.201371 -0.187987,0.06074 -0.528564,0.192939 -0.756836,0.293768 -0.228272,0.100829 -0.612793,0.267841 -0.854492,0.371139 -0.446055,0.190637 -1.863592,0.892943 -2.929688,1.451488 -0.910466,0.477011 -1.470181,0.824845 -2.269641,1.410475 -0.120373,0.08818 -0.260398,0.177091 -0.311169,0.197587 -0.05077,0.0205 -0.179052,0.105967 -0.285074,0.189938 -0.106021,0.08397 -0.299751,0.210022 -0.430514,0.280119 -0.360747,0.193377 -0.658855,0.394549 -0.991821,0.669308 -0.165893,0.136892 -0.367543,0.283121 -0.448109,0.324955 -0.167382,0.08691 -0.686859,0.521846 -1.464843,1.226451 -0.295411,0.267549 -0.651282,0.559619 -0.790828,0.649045 -0.50556,0.323986 -2.564171,2.355991 -3.875151,3.825067 -1.929015,2.16164 -3.876014,5.103121 -5.316622,8.032227 -2.300433,4.677341 -3.614442,9.749666 -3.914913,15.112305 -0.06133,1.09457 -0.03153,3.605557 0.05534,4.663085 0.337694,4.111021 1.229943,8.014293 2.662407,11.647067 0.529686,1.343301 2.091829,4.520512 2.712068,5.516019 1.360719,2.18401 2.647433,3.969951 3.940059,5.46875 0.904215,1.048439 3.376833,3.490752 4.368962,4.31542 3.402994,2.828609 6.616433,4.737828 11.242665,6.679673 4.224584,1.773257 7.796101,2.631773 11.328125,2.723042 2.041172,0.05274 2.412337,0.05309 3.564453,0.0033 z" id="path894" />
   </g>
</svg>
